<?xml version="1.0" encoding="utf-8"?><svg xmlns="http://www.w3.org/2000/svg" xmlns:xlink="http://www.w3.org/1999/xlink"><symbol fill="none" viewBox="0 0 156 218" id="about_green" xmlns="http://www.w3.org/2000/svg"><g clip-path="url(#aaa)"><path d="M-11.32 88.871a15.48 15.48 0 0 1 15.48 0l65.292 37.696a15.479 15.479 0 0 1 7.74 13.406v75.391c0 5.531-2.95 10.641-7.74 13.406L4.16 266.466a15.481 15.481 0 0 1-15.48 0L-76.61 228.77a15.479 15.479 0 0 1-7.74-13.406v-75.391c0-5.531 2.95-10.641 7.74-13.406l65.29-37.696Z" stroke="#32DBBD" stroke-width="2"/><path d="M53.258 2.12a6.484 6.484 0 0 1 6.484 0l36.384 21.006a6.484 6.484 0 0 1 3.242 5.615v42.013a6.484 6.484 0 0 1-3.242 5.615L59.742 97.377a6.484 6.484 0 0 1-6.484 0L16.874 76.37a6.484 6.484 0 0 1-3.242-5.615V28.741a6.484 6.484 0 0 1 3.242-5.615L53.258 2.12Z" fill="#BFF4EB"/></g><defs><clipPath id="aaa"><path fill="#fff" d="M0 0h156v325H0z"/></clipPath></defs></symbol><symbol fill="none" viewBox="0 0 189 87" id="about_left" xmlns="http://www.w3.org/2000/svg"><g clip-path="url(#aba)"><path d="M21.587 3.206a8.826 8.826 0 0 1 8.826 0l62.484 36.075a8.826 8.826 0 0 1 4.413 7.644v72.15a8.828 8.828 0 0 1-4.413 7.644l-62.484 36.075a8.829 8.829 0 0 1-8.826 0l-62.484-36.075a8.828 8.828 0 0 1-4.413-7.644v-72.15a8.826 8.826 0 0 1 4.413-7.644L21.587 3.206Z" stroke="#40568E" stroke-width="1.14"/></g><path d="M91.13 2.596a3.697 3.697 0 0 1 3.74 0l24.016 14.083a3.696 3.696 0 0 1 1.827 3.189v28.264a3.696 3.696 0 0 1-1.827 3.19L94.87 65.402a3.697 3.697 0 0 1-3.74 0L67.114 51.321a3.697 3.697 0 0 1-1.827-3.189V19.868c0-1.312.695-2.526 1.827-3.19L91.13 2.597Z" fill="#253253"/><defs><clipPath id="aba"><path fill="#fff" transform="translate(-35)" d="M0 0h224v166H0z"/></clipPath></defs></symbol><symbol fill="none" viewBox="0 0 101 120" id="about_right" xmlns="http://www.w3.org/2000/svg"><path d="M57.64-30.917c1.15-.67 2.57-.67 3.72 0L109.192-3.07a3.697 3.697 0 0 1 1.837 3.194v55.75c0 1.316-.7 2.532-1.837 3.194L61.36 86.917c-1.15.67-2.57.67-3.72 0L9.808 59.07a3.697 3.697 0 0 1-1.837-3.194V.125c0-1.316.7-2.532 1.837-3.194L57.64-30.917Z" fill="#30406A"/><path d="M85.13 56.096a3.697 3.697 0 0 1 3.74 0l24.016 14.083a3.696 3.696 0 0 1 1.827 3.189v28.264a3.695 3.695 0 0 1-1.827 3.189L88.87 118.904a3.697 3.697 0 0 1-3.74 0l-24.016-14.083a3.696 3.696 0 0 1-1.827-3.189V73.368c0-1.312.695-2.526 1.827-3.19L85.13 56.098Z" fill="#253253"/></symbol><symbol fill="none" viewBox="0 0 24 25" id="arrow-left" xmlns="http://www.w3.org/2000/svg"><path d="M19 12.248H5M9.421 16.669 5 12.248l4.421-4.421" stroke="currentColor" stroke-width="2" stroke-linecap="round" stroke-linejoin="round"/></symbol><symbol fill="none" viewBox="0 0 24 24" id="arrow-right" xmlns="http://www.w3.org/2000/svg"><path d="M5 12h14M14.579 7.579 19 12l-4.421 4.421" stroke="currentColor" stroke-width="2" stroke-linecap="round" stroke-linejoin="round"/></symbol><symbol fill="none" viewBox="0 0 24 24" id="checkbox-deselected" xmlns="http://www.w3.org/2000/svg"><rect x="1" y="1" width="22" height="22" rx="3" fill="#fff" stroke="#32DBBD" stroke-width="2"/></symbol><symbol fill="none" viewBox="0 0 24 24" id="checkbox-selected" xmlns="http://www.w3.org/2000/svg"><rect width="24" height="24" rx="4" fill="#32DBBD"/><path fill-rule="evenodd" clip-rule="evenodd" d="M18.38 7.085c.23.21.245.566.035.795l-8.25 9a.563.563 0 0 1-.813.018l-3.75-3.75a.563.563 0 0 1 .796-.796l3.334 3.335 7.853-8.567a.563.563 0 0 1 .795-.035Z" fill="#fff" stroke="#fff" stroke-linecap="round" stroke-linejoin="round"/></symbol><symbol fill="none" viewBox="0 0 20 20" id="chevron-down" xmlns="http://www.w3.org/2000/svg"><path d="M6.751 8.376 10 11.624l3.248-3.248" stroke="currentColor" stroke-width="1.625" stroke-linecap="round" stroke-linejoin="round"/></symbol><symbol fill="none" viewBox="0 0 24 24" id="chevron-up" xmlns="http://www.w3.org/2000/svg"><path d="M8.102 13.95 12 10.05l3.898 3.898" stroke="currentColor" stroke-width="1.625" stroke-linecap="round" stroke-linejoin="round"/></symbol><symbol fill="none" viewBox="0 0 172 41" id="church_logo" xmlns="http://www.w3.org/2000/svg"><g clip-path="url(#aja)"><g clip-path="url(#ajb)" fill="#D6F037"><path d="M1.89 40.248H0v-6.119c0-.793.633-1.434 1.417-1.434h.472v7.553ZM5.025 40.248h-1.89V32.36c0-.794.633-1.434 1.417-1.434h.473v9.32ZM8.241 40.248h-1.89V24.402c0-.794.634-1.434 1.418-1.434h.472v17.28ZM11.468 40.248h-1.89V9.612c0-.793.633-1.434 1.417-1.434h.473v32.07ZM14.698 29.708l-1.89 1.477V6.017c0-.793.633-1.434 1.417-1.434h.473v25.125ZM17.933 28.833h-1.89V1.203c0-.525.425-.955.945-.955s.945.43.945.956v27.629ZM21.168 31.309l-1.89-1.53V4.583h.473c.784 0 1.416.64 1.416 1.434V31.31ZM24.384 40.248h-1.89V8.178h.473c.784 0 1.417.64 1.417 1.434v30.636ZM27.643 40.248h-1.89v-17.28h.473c.784 0 1.417.64 1.417 1.434v15.846ZM30.864 40.248h-1.889v-9.321h.472c.784 0 1.417.64 1.417 1.434v7.887ZM34 40.248h-1.89v-7.553h.473c.784 0 1.417.64 1.417 1.434v6.119ZM17.838 30.066l3.33 2.753v7.429h-8.36v-7.505l3.349-2.677h1.681Z"/></g><path d="M40 28.28V12.633c0-.212.172-.384.384-.384h9.525c.211 0 .383.172.383.385v2.047a.385.385 0 0 1-.383.384H43.47a.384.384 0 0 0-.383.385v3.192c0 .213.172.385.383.385h5.874c.212 0 .384.173.384.385v2.047a.384.384 0 0 1-.384.385H43.47a.384.384 0 0 0-.383.384v6.053a.384.384 0 0 1-.384.385h-2.32a.384.384 0 0 1-.383-.384ZM56.603 28.992c-1.156 0-2.192-.234-3.11-.703a5.258 5.258 0 0 1-2.173-2.038c-.53-.893-.794-1.963-.794-3.215v-.375c0-1.252.265-2.322.794-3.21a5.256 5.256 0 0 1 2.174-2.039c.917-.468 1.958-.703 3.109-.703 1.15 0 2.191.235 3.108.703a5.285 5.285 0 0 1 2.174 2.039c.53.888.794 1.963.794 3.21v.375c0 1.252-.264 2.322-.794 3.215a5.285 5.285 0 0 1-2.174 2.038c-.917.47-1.957.703-3.108.703Zm0-2.626c.904 0 1.653-.292 2.244-.88.591-.588.89-1.428.89-2.52v-.235c0-1.092-.29-1.936-.877-2.52-.586-.583-1.336-.88-2.257-.88-.922 0-1.654.292-2.245.88-.59.588-.89 1.428-.89 2.52v.235c0 1.096.295 1.936.89 2.52.59.588 1.34.88 2.245.88ZM63.989 28.28V17.418c0-.213.172-.385.384-.385h2.134c.212 0 .383.172.383.385v.928h.42c.171-.468.454-.813.855-1.03.397-.221.86-.327 1.393-.327h1.019c.212 0 .384.172.384.384v1.858a.384.384 0 0 1-.384.384H69.51c-.75 0-1.363.2-1.848.597-.485.398-.723 1.013-.723 1.84v6.23a.385.385 0 0 1-.384.384h-2.183a.384.384 0 0 1-.383-.384ZM77.293 28.992c-1.155 0-2.17-.247-3.051-.738a5.205 5.205 0 0 1-2.06-2.087c-.489-.898-.736-1.959-.736-3.179v-.283c0-1.22.243-2.277.723-3.18a5.088 5.088 0 0 1 2.033-2.086c.873-.49 1.888-.739 3.038-.739 1.151 0 2.13.257 2.973.761a5.229 5.229 0 0 1 1.962 2.11c.467.897.701 1.94.701 3.13v.623a.384.384 0 0 1-.384.385h-7.628a.384.384 0 0 0-.38.45c.11.593.388 1.093.838 1.495.56.5 1.248.752 2.06.752.81 0 1.433-.181 1.825-.54.296-.274.534-.566.723-.884a.375.375 0 0 1 .499-.137l1.715.902a.385.385 0 0 1 .145.548 8.278 8.278 0 0 1-.736.964c-.414.478-.961.885-1.65 1.22-.687.337-1.56.505-2.619.505l.01.008Zm-2.341-7.48h4.476c.247 0 .44-.24.374-.478a2.24 2.24 0 0 0-.723-1.141c-.476-.407-1.093-.61-1.86-.61-.768 0-1.43.203-1.897.61-.348.3-.595.676-.745 1.123-.084.243.11.495.366.495h.009Z" fill="#fff"/><path d="m82.757 28.055 3.611-5.027a.386.386 0 0 0 0-.451l-3.563-4.935a.385.385 0 0 1 .31-.61h2.46c.128 0 .242.062.317.168l2.527 3.7h.423l2.527-3.7a.38.38 0 0 1 .318-.168h2.46c.313 0 .494.354.309.61l-3.563 4.935a.386.386 0 0 0 0 .45l3.611 5.028c.181.252 0 .61-.308.61h-2.51a.38.38 0 0 1-.317-.168l-2.527-3.745h-.423l-2.527 3.745a.38.38 0 0 1-.317.168h-2.51a.383.383 0 0 1-.308-.61ZM101.357 28.992c-1.107 0-2.1-.238-2.981-.716a5.197 5.197 0 0 1-2.082-2.052c-.507-.888-.758-1.945-.758-3.165v-.257c0-1.233.251-2.295.758-3.179a5.191 5.191 0 0 1 2.082-2.038c.882-.478 1.874-.717 2.981-.717 1.107 0 2.024.204 2.795.61.772.407 1.381.947 1.826 1.619.37.561.631 1.158.781 1.782a.382.382 0 0 1-.3.45l-1.045.218a.377.377 0 0 1-.446-.28 3.948 3.948 0 0 0-.485-1.189 3.152 3.152 0 0 0-1.204-1.127c-.516-.283-1.146-.42-1.891-.42-.746 0-1.447.172-2.047.517a3.7 3.7 0 0 0-1.424 1.477c-.353.641-.525 1.406-.525 2.3v.212c0 .893.177 1.658.525 2.299a3.702 3.702 0 0 0 1.424 1.477c.6.345 1.284.517 2.047.517 1.137 0 2.006-.296 2.606-.893a3.805 3.805 0 0 0 1.036-1.84.372.372 0 0 1 .437-.287l1.067.234a.384.384 0 0 1 .291.478 6.32 6.32 0 0 1-.834 1.742 4.948 4.948 0 0 1-1.834 1.618c-.772.407-1.702.61-2.796.61h-.004ZM108.677 28.28V12.633c0-.212.171-.384.383-.384h1.081c.211 0 .383.172.383.385v6.393h.326c.155-.345.393-.668.715-.973.317-.305.732-.557 1.239-.76.507-.203 1.151-.305 1.931-.305.856 0 1.628.186 2.302.553a4.12 4.12 0 0 1 1.627 1.596c.406.694.609 1.56.609 2.59v6.558a.384.384 0 0 1-.384.385h-1.08a.384.384 0 0 1-.384-.385v-6.416c0-1.14-.286-1.972-.855-2.485-.569-.517-1.336-.774-2.302-.774-1.107 0-2.006.359-2.699 1.08-.692.72-1.04 1.79-1.04 3.21v5.385a.384.384 0 0 1-.384.385h-1.08a.384.384 0 0 1-.384-.385l-.004-.005ZM125.795 28.873a4.901 4.901 0 0 1-2.28-.54 3.9 3.9 0 0 1-1.636-1.604c-.396-.712-.595-1.575-.595-2.591V17.58c0-.212.172-.384.384-.384h1.08c.212 0 .384.172.384.384v6.416c0 1.14.286 1.968.855 2.485.569.517 1.336.774 2.302.774 1.089 0 1.989-.358 2.69-1.08.701-.72 1.054-1.79 1.054-3.214v-5.385c0-.212.172-.385.384-.385h1.08c.212 0 .384.173.384.385v10.7a.385.385 0 0 1-.384.385h-1.036a.385.385 0 0 1-.384-.385v-1.56h-.326c-.252.548-.679 1.043-1.288 1.49-.608.446-1.495.667-2.668.667ZM134.328 28.28v-10.7c0-.212.172-.384.384-.384h1.036c.212 0 .384.172.384.384v1.022h.326c.203-.5.516-.867.935-1.101.419-.235.974-.35 1.662-.35h.975c.212 0 .384.173.384.385v.92a.385.385 0 0 1-.384.384h-1.089c-.825 0-1.495.23-1.998.69-.507.46-.758 1.176-.758 2.145v6.605a.385.385 0 0 1-.384.385h-1.08a.385.385 0 0 1-.384-.384h-.009ZM146.582 28.992c-1.107 0-2.099-.238-2.981-.716a5.195 5.195 0 0 1-2.081-2.052c-.507-.888-.759-1.945-.759-3.165v-.257c0-1.233.252-2.295.759-3.179a5.19 5.19 0 0 1 2.081-2.038c.882-.478 1.874-.717 2.981-.717 1.107 0 2.024.204 2.796.61.772.407 1.38.947 1.826 1.619.37.561.63 1.158.78 1.782.049.203-.092.407-.3.45l-1.045.218a.377.377 0 0 1-.445-.28 3.948 3.948 0 0 0-.485-1.189 3.159 3.159 0 0 0-1.204-1.127c-.516-.283-1.147-.42-1.892-.42-.745 0-1.446.172-2.046.517-.6.345-1.076.836-1.424 1.477-.353.641-.525 1.406-.525 2.3v.212c0 .893.176 1.658.525 2.299a3.697 3.697 0 0 0 1.424 1.477c.6.345 1.283.517 2.046.517 1.138 0 2.007-.296 2.606-.893a3.815 3.815 0 0 0 1.037-1.84.372.372 0 0 1 .436-.287l1.067.234a.384.384 0 0 1 .291.478 6.288 6.288 0 0 1-.833 1.742 4.95 4.95 0 0 1-1.835 1.618c-.771.407-1.702.61-2.795.61h-.005ZM153.903 28.28V12.633c0-.212.172-.384.384-.384h1.08c.212 0 .384.172.384.385v6.393h.326c.154-.345.393-.668.714-.973.318-.305.732-.557 1.24-.76.507-.203 1.15-.305 1.931-.305.855 0 1.627.186 2.302.553a4.127 4.127 0 0 1 1.627 1.596c.406.694.609 1.56.609 2.59v6.558a.384.384 0 0 1-.384.385h-1.08a.384.384 0 0 1-.384-.385v-6.416c0-1.14-.287-1.972-.856-2.485-.568-.517-1.336-.774-2.301-.774-1.107 0-2.007.359-2.699 1.08-.692.72-1.041 1.79-1.041 3.21v5.385a.384.384 0 0 1-.383.385h-1.081a.384.384 0 0 1-.384-.385l-.004-.005Z" fill="#fff"/></g><defs><clipPath id="aja"><path fill="#fff" transform="translate(0 .248)" d="M0 0h172v40H0z"/></clipPath><clipPath id="ajb"><path fill="#fff" transform="translate(0 .248)" d="M0 0h40v40H0z"/></clipPath></defs></symbol><symbol fill="none" viewBox="0 0 25 24" id="close" xmlns="http://www.w3.org/2000/svg"><path d="m6.618 18 12-12m-12 0 12 12" stroke="currentColor" stroke-width="1.336" stroke-linecap="round" stroke-linejoin="round"/></symbol><symbol fill="none" viewBox="0 0 25 25" id="compare_negative" xmlns="http://www.w3.org/2000/svg"><path d="M2.559 12.248a9.941 9.941 0 1 0 19.882 0 9.941 9.941 0 0 0-19.882 0ZM9.833 9.581l5.334 5.334m0-5.334-5.334 5.334" stroke="red" stroke-width="2" stroke-linecap="round" stroke-linejoin="round"/></symbol><symbol fill="none" viewBox="0 0 24 25" id="compare_positive" xmlns="http://www.w3.org/2000/svg"><path d="M2.059 12.248a9.941 9.941 0 1 0 19.882 0 9.941 9.941 0 0 0-19.882 0Z" stroke="#3BB273" stroke-width="2" stroke-linecap="round" stroke-linejoin="round"/><path d="m8.686 12.248 2.21 2.209 4.418-4.418" stroke="#3BB273" stroke-width="2" stroke-linecap="round" stroke-linejoin="round"/></symbol><symbol fill="none" viewBox="0 0 24 24" id="contact" xmlns="http://www.w3.org/2000/svg"><path d="M22 2 9.391 14.609" stroke="currentColor" stroke-width="2" stroke-linecap="round" stroke-linejoin="round"/><path clip-rule="evenodd" d="m13.304 22-3.913-7.391L2 10.696 22 2l-8.696 20Z" stroke="currentColor" stroke-width="2" stroke-linecap="round" stroke-linejoin="round"/></symbol><symbol fill="none" viewBox="0 0 20 20" id="downtrend" xmlns="http://www.w3.org/2000/svg"><path d="m17.714 13.857-5.785-6.75L7 11 2.286 6.143" stroke="currentColor" stroke-linecap="round" stroke-linejoin="round"/><path d="M7.286 10.643a.643.643 0 1 1-1.285 0 .643.643 0 0 1 1.285 0ZM12.571 6.786a.643.643 0 1 1-1.285 0 .643.643 0 0 1 1.285 0Z" stroke="currentColor" stroke-linecap="round" stroke-linejoin="round"/><path d="M19 13.857a1.286 1.286 0 1 1-2.572 0 1.286 1.286 0 0 1 2.572 0ZM3.571 6.143a1.286 1.286 0 1 1-2.571 0 1.286 1.286 0 0 1 2.571 0Z" fill="currentColor"/></symbol><symbol fill="none" viewBox="0 0 24 24" id="dropdown" xmlns="http://www.w3.org/2000/svg"><path d="m8.47 14.835 3.53 3.53 3.53-3.53M8.47 9.165 12 5.635l3.53 3.53" stroke="currentColor" stroke-width="2" stroke-linecap="round" stroke-linejoin="round"/></symbol><symbol fill="none" viewBox="0 0 74 66" id="empty_state" xmlns="http://www.w3.org/2000/svg"><path d="M26.33 48.077c11.992 0 21.713-9.729 21.713-21.73 0-12-9.721-21.728-21.713-21.728S4.617 14.348 4.617 26.348s9.72 21.729 21.713 21.729Z" fill="#fff" stroke="#1A1A1A" stroke-width="1.11" stroke-linecap="round" stroke-linejoin="round"/><path d="M71.717 63.634a5.172 5.172 0 0 0-.473-7.292L49.526 38.806a4.775 4.775 0 0 0-.81-.584c4.784-9.033 3.79-20.455-3.349-28.594C36.14-.895 20.137-1.936 9.622 7.297-.893 16.53-1.934 32.545 7.292 43.068c8.996 10.254 24.421 11.506 34.936 3.015.153.173.31.336.49.489l21.718 17.535a5.163 5.163 0 0 0 7.287-.473h-.006Zm-59.43-23.807c-.2-.205-.394-.42-.584-.637-7.076-8.07-6.272-20.397 1.793-27.479C21.561 4.63 33.88 5.435 40.956 13.5c.19.216.373.437.557.663 6.472 8.07 5.505 19.924-2.345 26.816-7.844 6.892-19.72 6.319-26.876-1.152h-.005Z" fill="#D6F037" stroke="#1A1A1A" stroke-width=".76" stroke-linecap="round" stroke-linejoin="round"/><path d="M29.857 16.82c1.225-4.457-7.786-3.662-10.205-2.068-2.034.958-7.902 6.34-4.342 8.46a2.158 2.158 0 0 0 2.907-.92c.978-1.8 1.835-2.779 3.297-3.647 1.698-.968 3.88-1.052 5.599-.531a2.155 2.155 0 0 0 2.744-1.3v.006Z" fill="#E6E6E6"/></symbol><symbol fill="none" viewBox="0 0 24 25" id="emptystar" xmlns="http://www.w3.org/2000/svg"><path d="m12 2.89 2.781 6.64 7.219.574-5.5 4.679 1.68 6.995L12 18.029l-6.18 3.749 1.68-6.995L2 10.104l7.219-.575L12 2.89Z" fill="#E6E9EC"/></symbol><symbol fill="none" viewBox="0 0 40 40" id="facebook" xmlns="http://www.w3.org/2000/svg"><rect width="40" height="40" rx="20" fill="#05223D"/><path d="m26.083 21.624.726-4.705h-4.54v-3.053c0-1.287.634-2.543 2.668-2.543H27V7.318S25.128 7 23.337 7c-3.738 0-6.181 2.254-6.181 6.333v3.587H13v4.705h4.156V33h5.113V21.625h3.814Z" fill="#fff"/></symbol><symbol fill="none" viewBox="0 0 25 24" id="filter" xmlns="http://www.w3.org/2000/svg"><path d="M12.5 6a2 2 0 1 0 4 0 2 2 0 0 0-4 0ZM4.5 6h8M16.5 6h4M6.5 12a2 2 0 1 0 4 0 2 2 0 0 0-4 0ZM4.5 12h2M10.5 12h10M15.5 18a2 2 0 1 0 4 0 2 2 0 0 0-4 0ZM4.5 18h11M19.5 18h1" stroke="currentColor" stroke-width="1.5" stroke-linecap="round" stroke-linejoin="round"/></symbol><symbol fill="none" viewBox="0 0 40 40" id="filter-advanced" xmlns="http://www.w3.org/2000/svg"><path d="M2 14a4 4 0 1 0 8 0 4 4 0 0 0-8 0ZM6 2v8M6 18v16M18 22a4 4 0 0 0-2.084 7.414M18 2v20M26 8a4 4 0 1 0 8 0 4 4 0 0 0-8 0ZM30 2v2M30 12v4M24 30a6 6 0 1 0 12 0 6 6 0 0 0-12 0ZM34.4 34.4 38 38" stroke="currentColor" stroke-width="2.4" stroke-linecap="round" stroke-linejoin="round"/></symbol><symbol fill="none" viewBox="0 0 189 167" id="footer_logo" xmlns="http://www.w3.org/2000/svg"><g clip-path="url(#ava)"><path d="M6.136 1.337a3.697 3.697 0 0 1 3.728 0l33.543 19.59a3.697 3.697 0 0 1 1.832 3.193v39.256c0 1.314-.697 2.53-1.832 3.192L9.864 86.158a3.697 3.697 0 0 1-3.728 0l-33.543-19.59a3.697 3.697 0 0 1-1.832-3.192V24.12c0-1.314.698-2.53 1.832-3.192L6.136 1.337Z" fill="#30406A"/><path d="M101.587 3.454a8.826 8.826 0 0 1 8.826 0l62.484 36.075a8.826 8.826 0 0 1 4.413 7.644v72.15a8.824 8.824 0 0 1-4.413 7.643l-62.484 36.076a8.829 8.829 0 0 1-8.826 0l-62.484-36.076a8.825 8.825 0 0 1-4.413-7.643v-72.15a8.826 8.826 0 0 1 4.413-7.644l62.484-36.075Z" stroke="#40568E" stroke-width="1.14"/></g><defs><clipPath id="ava"><path fill="#fff" transform="translate(-35 .248)" d="M0 0h224v166H0z"/></clipPath></defs></symbol><symbol fill="none" viewBox="0 0 178 163" id="forex_header_illustration" xmlns="http://www.w3.org/2000/svg"><path d="M41.136 24.089a3.697 3.697 0 0 1 3.728 0l33.543 19.59a3.697 3.697 0 0 1 1.832 3.193v39.256c0 1.314-.698 2.53-1.832 3.192l-33.543 19.591a3.696 3.696 0 0 1-3.728 0L7.593 89.321a3.697 3.697 0 0 1-1.832-3.193V46.872c0-1.314.698-2.53 1.832-3.192l33.543-19.591Z" fill="#BFF4EB"/><path d="M136.587 3.206a8.826 8.826 0 0 1 8.826 0l62.484 36.075a8.826 8.826 0 0 1 4.413 7.644v72.15a8.827 8.827 0 0 1-4.413 7.644l-62.484 36.075a8.829 8.829 0 0 1-8.826 0l-62.484-36.075a8.828 8.828 0 0 1-4.413-7.644v-72.15a8.826 8.826 0 0 1 4.413-7.644l62.484-36.075Z" stroke="#32DBBD" stroke-width="1.14"/><path d="M124.652 140.067a3.697 3.697 0 0 1 3.696 0l14.057 8.116a3.697 3.697 0 0 1 1.849 3.201v16.232c0 1.32-.705 2.541-1.849 3.201l-14.057 8.116a3.697 3.697 0 0 1-3.696 0l-14.057-8.116a3.697 3.697 0 0 1-1.849-3.201v-16.232c0-1.32.705-2.541 1.849-3.201l14.057-8.116Z" fill="#BFF4EB"/></symbol><symbol fill="none" viewBox="0 0 24 24" id="fullstar" xmlns="http://www.w3.org/2000/svg"><path d="m12 2.556 2.781 6.64L22 9.77l-5.5 4.678 1.68 6.996-6.18-3.75-6.18 3.75 1.68-6.996L2 9.771l7.219-.575L12 2.556Z" fill="#FFCB45"/></symbol><symbol fill="none" viewBox="0 0 156 325" id="green_illustration" xmlns="http://www.w3.org/2000/svg"><g clip-path="url(#aya)"><path d="M-11.32 88.871a15.48 15.48 0 0 1 15.48 0l65.292 37.696a15.479 15.479 0 0 1 7.74 13.406v75.391c0 5.531-2.95 10.641-7.74 13.406L4.16 266.466a15.481 15.481 0 0 1-15.48 0L-76.61 228.77a15.479 15.479 0 0 1-7.74-13.406v-75.391c0-5.531 2.95-10.641 7.74-13.406l65.29-37.696Z" stroke="#32DBBD" stroke-width="2"/><path d="M103.258 228.119a6.485 6.485 0 0 1 6.484 0l36.384 21.007a6.484 6.484 0 0 1 3.242 5.615v42.013a6.483 6.483 0 0 1-3.242 5.615l-36.384 21.007a6.485 6.485 0 0 1-6.484 0l-36.384-21.007a6.483 6.483 0 0 1-3.242-5.615v-42.013a6.484 6.484 0 0 1 3.242-5.615l36.384-21.007Z" fill="#fff"/><path d="M53.258 2.12a6.484 6.484 0 0 1 6.484 0l36.384 21.006a6.484 6.484 0 0 1 3.242 5.615v42.013a6.484 6.484 0 0 1-3.242 5.615L59.742 97.377a6.484 6.484 0 0 1-6.484 0L16.874 76.369a6.484 6.484 0 0 1-3.242-5.615V28.741a6.484 6.484 0 0 1 3.242-5.615L53.258 2.119Z" fill="#BFF4EB"/></g><defs><clipPath id="aya"><path fill="#fff" d="M0 0h156v325H0z"/></clipPath></defs></symbol><symbol fill="none" viewBox="0 0 116 385" id="green_illustration_right" xmlns="http://www.w3.org/2000/svg"><g clip-path="url(#aza)"><path d="M109.681 84.871a15.48 15.48 0 0 1 15.48 0l65.291 37.696a15.48 15.48 0 0 1 7.74 13.406v75.391a15.48 15.48 0 0 1-7.74 13.406l-65.291 37.696a15.481 15.481 0 0 1-15.48 0L44.39 224.77a15.479 15.479 0 0 1-7.74-13.406v-75.391c0-5.531 2.95-10.641 7.74-13.406l65.291-37.696Z" stroke="#32DBBD" stroke-width="2"/><path d="M122.258 288.119a6.485 6.485 0 0 1 6.484 0l36.384 21.007a6.484 6.484 0 0 1 3.242 5.615v42.013a6.483 6.483 0 0 1-3.242 5.615l-36.384 21.007a6.485 6.485 0 0 1-6.484 0l-36.384-21.007a6.483 6.483 0 0 1-3.242-5.615v-42.013a6.484 6.484 0 0 1 3.242-5.615l36.384-21.007Z" fill="#fff"/><path d="M46.258 2.12a6.484 6.484 0 0 1 6.484 0l36.384 21.006a6.484 6.484 0 0 1 3.242 5.615v42.013a6.484 6.484 0 0 1-3.242 5.615L52.742 97.377a6.484 6.484 0 0 1-6.484 0L9.874 76.369a6.484 6.484 0 0 1-3.242-5.615V28.741a6.484 6.484 0 0 1 3.242-5.615L46.258 2.119Z" fill="#BFF4EB"/></g><defs><clipPath id="aza"><path fill="#fff" d="M0 0h116v385H0z"/></clipPath></defs></symbol><symbol fill="none" viewBox="0 0 24 24" id="guide" xmlns="http://www.w3.org/2000/svg"><path d="M3 6a2 2 0 0 1 2-2h14a2 2 0 0 1 2 2v12a2 2 0 0 1-2 2H5a2 2 0 0 1-2-2V6ZM7 8h10M7 12h10M7 16h10" stroke="currentColor" stroke-width="2" stroke-linecap="round" stroke-linejoin="round"/></symbol><symbol fill="none" viewBox="0 0 24 25" id="halfstar" xmlns="http://www.w3.org/2000/svg"><path d="m12 3.445 2.781 6.64 7.219.574-5.5 4.68 1.68 6.995-6.18-3.75-6.18 3.75 1.68-6.996L2 10.66l7.219-.575L12 3.445Z" fill="#E6E9EC"/><mask id="bba" style="mask-type:alpha" maskUnits="userSpaceOnUse" x="2" y="3" width="20" height="20"><path d="m12 3.445 2.781 6.64 7.219.574-5.5 4.68 1.68 6.995-6.18-3.75-6.18 3.75 1.68-6.996L2 10.66l7.219-.575L12 3.445Z" fill="#FFCB45"/></mask><g mask="url(#bba)"><path fill="#FFCB45" d="M2 3.445h10v19H2z"/></g></symbol><symbol fill="none" viewBox="0 0 25 24" id="hamburger" xmlns="http://www.w3.org/2000/svg"><rect x="4.118" y="5" width="9" height="2" rx="1" fill="currentColor"/><rect x="4.118" y="17" width="14" height="2" rx="1" fill="currentColor"/><rect x="4.118" y="11" width="17" height="2" rx="1" fill="currentColor"/></symbol><symbol fill="none" viewBox="0 0 40 40" id="linkedin" xmlns="http://www.w3.org/2000/svg"><rect width="40" height="40" rx="20" fill="#05223D"/><path d="M13.448 31V16.156H8.303V31h5.146Zm-2.571-16.87c1.793 0 2.91-1.14 2.91-2.565C13.753 10.108 12.67 9 10.911 9 9.15 9 8 10.108 8 11.565c0 1.424 1.116 2.564 2.843 2.564h.033ZM16.296 31h5.144V22.71c0-.443.034-.887.17-1.204.372-.887 1.218-1.805 2.64-1.805 1.86 0 2.606 1.362 2.606 3.357V31H32v-8.51c0-4.56-2.538-6.681-5.923-6.681-2.775 0-3.994 1.487-4.67 2.5h.034v-2.152h-5.145c.067 1.393 0 14.844 0 14.844Z" fill="#fff"/></symbol><symbol fill="none" viewBox="0 0 14 2" id="minus" xmlns="http://www.w3.org/2000/svg"><path d="M1.4 1.8a.8.8 0 0 1 0-1.6h11.2a.8.8 0 1 1 0 1.6H1.4Z" fill="currentColor"/></symbol><symbol fill="none" viewBox="0 0 16 16" id="plus" xmlns="http://www.w3.org/2000/svg"><path fill-rule="evenodd" clip-rule="evenodd" d="M8 0a1 1 0 0 0-1 1v6H1a1 1 0 0 0 0 2h6v6a1 1 0 1 0 2 0V9h6a1 1 0 1 0 0-2H9V1a1 1 0 0 0-1-1Z" fill="currentColor"/></symbol><symbol fill="none" viewBox="0 0 84 69" id="quote" xmlns="http://www.w3.org/2000/svg"><g clip-path="url(#bga)"><path d="M41.794 8.245c0 9.691 7.034 18.637 18.141 20.5-1.851 11.182-11.847 22.364-18.141 26.837L55.492 69C71.412 55.21 84 35.827 84 9.736 84-4.054 74.374-13 62.157-13 50.678-13 41.794-3.31 41.794 8.245Zm-54.794 0c0 9.691 7.034 18.637 18.141 20.5C3.291 39.928-6.706 51.11-13 55.582L.698 69c15.92-13.79 28.508-33.173 28.508-59.264C29.206-4.054 19.58-13 7.363-13-4.115-13-13-3.31-13 8.245Z" fill="#E6E9EC"/></g><defs><clipPath id="bga"><path d="M0 12C0 5.373 5.373 0 12 0h72v69H0V12Z" fill="#fff"/></clipPath></defs></symbol><symbol fill="none" viewBox="0 0 20 20" id="radio-check" xmlns="http://www.w3.org/2000/svg"><g clip-path="url(#bha)"><circle cx="10" cy="10" r="10" fill="#32DBBD"/><path d="m7 10.21 2.21 2.208L13.627 8" stroke="#fff" stroke-width="2" stroke-linecap="round" stroke-linejoin="round"/></g><defs><clipPath id="bha"><path fill="#fff" d="M0 0h20v20H0z"/></clipPath></defs></symbol><symbol fill="none" viewBox="0 0 24 24" id="radio-deselected" xmlns="http://www.w3.org/2000/svg"><circle cx="12" cy="12" r="11.25" fill="#fff" stroke="#32DBBD" stroke-width="1.5"/></symbol><symbol fill="none" viewBox="0 0 24 24" id="radio-selected" xmlns="http://www.w3.org/2000/svg"><circle cx="12" cy="12" r="8" fill="#fff" stroke="#32DBBD" stroke-width="8"/></symbol><symbol fill="none" viewBox="0 0 24 24" id="search" xmlns="http://www.w3.org/2000/svg"><path d="M3 10a7 7 0 1 0 14 0 7 7 0 0 0-14 0ZM21 21l-6-6" stroke="currentColor" stroke-width="2" stroke-linecap="round" stroke-linejoin="round"/></symbol><symbol fill="none" viewBox="0 0 40 40" id="twitter" xmlns="http://www.w3.org/2000/svg"><rect width="40" height="40" rx="20" fill="#05223D"/><path d="M32 12.372c-.883.401-1.83.672-2.827.795a5.04 5.04 0 0 0 2.164-2.794 9.689 9.689 0 0 1-3.126 1.225 4.89 4.89 0 0 0-2.795-1.53 4.821 4.821 0 0 0-3.125.53 5.002 5.002 0 0 0-2.164 2.372 5.166 5.166 0 0 0-.307 3.233 13.716 13.716 0 0 1-5.621-1.531 14.054 14.054 0 0 1-4.528-3.744 5.143 5.143 0 0 0-.666 2.538c0 .83.2 1.649.581 2.382a5.007 5.007 0 0 0 1.61 1.82 4.82 4.82 0 0 1-2.231-.632v.065c0 1.165.393 2.295 1.113 3.197a4.906 4.906 0 0 0 2.837 1.752 4.843 4.843 0 0 1-2.224.087 5.048 5.048 0 0 0 1.752 2.508c.825.628 1.82.977 2.848.996A9.727 9.727 0 0 1 8 27.732 13.68 13.68 0 0 0 15.547 30c9.058 0 14.01-7.69 14.01-14.36 0-.218-.005-.436-.014-.653a10.153 10.153 0 0 0 2.455-2.611l.002-.004Z" fill="#fff"/></symbol><symbol fill="none" viewBox="0 0 21 20" id="uptrend" xmlns="http://www.w3.org/2000/svg"><path d="m2.786 13.857 5.785-6.75 4.822 4.822 4.821-5.786" stroke="currentColor" stroke-linecap="round" stroke-linejoin="round"/><path d="M13.071 11.929a.643.643 0 1 0 1.286 0 .643.643 0 0 0-1.286 0ZM7.929 6.786a.643.643 0 1 0 1.285 0 .643.643 0 0 0-1.285 0Z" stroke="currentColor" stroke-linecap="round" stroke-linejoin="round"/><path d="M1.5 13.857a1.286 1.286 0 1 0 2.572 0 1.286 1.286 0 0 0-2.572 0ZM16.929 6.143a1.286 1.286 0 1 0 2.571 0 1.286 1.286 0 0 0-2.571 0Z" fill="currentColor" stroke="currentColor" stroke-linecap="round" stroke-linejoin="round"/></symbol><symbol fill="none" viewBox="0 0 25 24" id="users" xmlns="http://www.w3.org/2000/svg"><path d="M5.667 7a4 4 0 1 0 8 0 4 4 0 0 0-8 0ZM3.667 21v-2a4 4 0 0 1 4-4h4a4 4 0 0 1 4 4v2M16.667 3.13a4 4 0 0 1 0 7.75M21.667 21v-2a4 4 0 0 0-3-3.85" stroke="currentColor" stroke-width="2" stroke-linecap="round" stroke-linejoin="round"/></symbol></svg>