<svg width="74" height="66" viewBox="0 0 74 66" fill="none" xmlns="http://www.w3.org/2000/svg">
<path d="M26.3299 48.0767C38.3218 48.0767 48.0431 38.3484 48.0431 26.3479C48.0431 14.3475 38.3218 4.61914 26.3299 4.61914C14.3379 4.61914 4.61658 14.3475 4.61658 26.3479C4.61658 38.3484 14.3379 48.0767 26.3299 48.0767Z" fill="white" stroke="#1A1A1A" stroke-width="1.11" stroke-linecap="round" stroke-linejoin="round"/>
<path d="M71.7174 63.634C73.5995 61.4874 73.384 58.2255 71.2442 56.342L49.5256 38.8064C49.2733 38.5801 48.9999 38.3855 48.716 38.2224C53.5003 29.1889 52.5066 17.7668 45.367 9.62771C36.1402 -0.894704 20.1365 -1.93643 9.62155 7.29699C-0.893361 16.5304 -1.93433 32.5455 7.2925 43.068C16.288 53.3221 31.7134 54.5742 42.2283 46.0826C42.3808 46.2562 42.5385 46.4193 42.7172 46.5719L64.4358 64.1075C66.5756 65.991 69.8405 65.7753 71.7226 63.634H71.7174ZM12.2871 39.827C12.0873 39.6219 11.8928 39.4062 11.7035 39.1904C4.62696 31.1198 5.43136 18.7927 13.4963 11.7111C21.5612 4.62956 33.8795 5.43452 40.956 13.5C41.1453 13.7157 41.3293 13.9366 41.5133 14.1629C47.9852 22.2336 47.0178 34.0871 39.1684 40.9793C31.3243 47.8714 19.4477 47.298 12.2923 39.827H12.2871Z" fill="#D6F037" stroke="#1A1A1A" stroke-width="0.76" stroke-linecap="round" stroke-linejoin="round"/>
<path d="M29.8571 16.8197C31.0821 12.3635 22.0708 13.1579 19.6524 14.7521C17.6177 15.7096 11.7504 21.0918 15.3097 23.2121C16.3665 23.7593 17.665 23.3489 18.2171 22.2914C19.195 20.4921 20.0519 19.5135 21.5135 18.6454C23.2117 17.6773 25.3935 17.5931 27.1127 18.114C28.2273 18.5086 29.4523 17.9299 29.8571 16.8145V16.8197Z" fill="#E6E6E6"/>
</svg>
