<svg width="40" height="40" viewBox="0 0 40 40" fill="none" xmlns="http://www.w3.org/2000/svg">
<rect width="40" height="40" rx="20" fill="#05223D"/>
<path d="M13.4483 30.9996V16.1556H8.30346V30.9996H13.4487H13.4483ZM10.8768 14.1292C12.6705 14.1292 13.7872 12.9893 13.7872 11.5648C13.7535 10.108 12.6705 9 10.9109 9C9.14998 9 8 10.108 8 11.5648C8 12.9893 9.11626 14.1292 10.843 14.1292H10.8763H10.8768ZM16.2958 30.9996H21.4402V22.711C21.4402 22.2678 21.4739 21.8237 21.6097 21.5072C21.9815 20.6204 22.828 19.7025 24.2495 19.7025C26.1107 19.7025 26.8556 21.0636 26.8556 23.0593V30.9996H32V22.4885C32 17.9293 29.4622 15.8076 26.0774 15.8076C23.3023 15.8076 22.0835 17.2951 21.4065 18.3082H21.4406V16.156H16.2963C16.3632 17.5486 16.2958 31 16.2958 31V30.9996Z" fill="white"/>
</svg>
